<?xml version="1.0" standalone="no"?>
<!DOCTYPE svg PUBLIC "-//W3C//DTD SVG 1.1//EN" "http://www.w3.org/Graphics/SVG/1.1/DTD/svg11.dtd">
<svg xmlns="http://www.w3.org/2000/svg">
<metadata>Copyright (C) 2021 by original authors @ fontello.com</metadata>
<defs>
<font id="icons" horiz-adv-x="1000" >
<font-face font-family="icons" font-weight="400" font-stretch="normal" units-per-em="1000" ascent="850" descent="-150" />
<missing-glyph horiz-adv-x="1000" />
<glyph glyph-name="money" unicode="&#x2795;" d="M618 620h1c0 0-1 3-1 0z m-283 0h2c-1 3-2 0-2 0z m564-72c-6 11-16 18-28 21l-64 14 30 9c24 6 38 32 32 57-7 24-33 39-57 32l-137-38c-3 6-9 12-15 16 28 51 68 139 68 176 0 9-9 17-18 15-54-11-104-16-154-16-51 1-115 7-154 16-13 2-23-11-16-22 10-17 15-34 19-51-50-1-102 5-142 24-10 6-23-4-21-15 13-75 38-118 63-151h-1c-25 0-46-21-46-46 0-24 17-43 40-46-17-28-40-54-65-81-53-59-112-125-132-232-10-52-10-100 1-143 9-41 27-77 54-109 35-42 83-75 143-97 54-20 115-31 178-31 63 0 125 11 179 31 59 22 108 55 143 97 26 32 44 68 54 109 10 43 10 91 1 143-20 107-80 173-133 232-18 19-35 38-49 58l178-41c19-5 39 4 49 20 10 15 10 34 0 49z m-343 257c45-1 91 3 140 12-9-36-38-101-65-151-19-1-34-14-40-31h-41c-1 2-2 4-3 7-13 27-39 83-39 130 0 9-9 17-18 15-17-4-36-6-56-8-2 12-5 24-10 37 40-7 90-11 132-11z m95-185v-63c0-9-7-16-16-16s-17 7-17 16v63c0 10 7 17 17 17s16-7 16-17z m-374 144c37-13 82-18 131-17l29 2c14 2 28 3 42 6 5-46 26-93 38-120h-98-31-46c0 1 0 1-1 2-25 29-50 64-64 127z m422-322c50-56 107-119 126-218 17-91 0-167-49-227-61-74-173-118-299-118s-238 44-299 118c-49 60-65 136-48 227 18 99 75 162 125 218 30 33 58 65 76 101h36c9 0 15 6 15 14 0 9-6 15-15 15h-63c-9 0-17 8-17 17 0 9 8 17 17 17h284v-34h-150c-8 0-15-6-15-15 0-8 7-14 15-14h153c6-19 23-32 44-32 2 0 4 0 6 1 17-24 37-47 58-70z m-18 171l139 39c8 3 18-3 20-11 3-9-3-18-11-21l-80-22c0 0-1-1-2-1l-66 16v0z m196-93c-2-9-11-15-20-12l-177 40c0 3 1 6 1 9v25l183-42c9-2 15-11 13-20z m-305-276c21 0 38 17 38 38v24c0 55-41 101-94 108v25c0 21-18 39-39 39-21 0-38-18-38-39v-27c-55-12-95-61-95-118 0-67 55-121 121-121h24c24 0 44-20 44-45s-20-44-44-44h-35c-18 0-33 15-33 33 0 21-17 38-38 38-21 0-39-17-39-38 0-56 42-101 95-109v-25c0-21 17-39 38-39 21 0 39 18 39 39v27c54 13 94 61 94 118 0 67-54 121-121 121h-24c-24 0-44 20-44 45s20 44 44 44h36c18 0 32-15 32-32v-24c0-21 17-38 39-38z m-71 124h-36c-40 0-73-34-73-74 0-41 33-74 73-74h24c50 0 91-41 91-92 0-46-35-85-81-90-7-1-13-8-13-15v-40c0-5-4-9-9-9s-9 4-9 9v39c0 8-6 15-14 15-44 0-80 36-80 80 0 5 4 8 9 8s9-3 9-8c0-35 27-62 62-62h35c41 0 74 33 74 73s-33 74-74 74h-24c-50 0-91 41-91 92 0 46 35 85 81 91 8 0 13 7 13 14v40c0 5 4 9 9 9s9-4 9-9v-39c0-8 7-15 15-15 44 0 79-36 79-79v-24c0-5-4-9-8-9s-9 4-9 9v24c0 34-28 62-62 62z" horiz-adv-x="1000" />

<glyph glyph-name="speech-bubble" unicode="&#xe02f;" d="M145-89h-70l50 50c27 27 43 63 48 101-115 75-173 185-173 300 0 213 195 428 501 428 324 0 497-198 497-409 0-212-175-411-497-411-57 0-115 8-168 21-50-51-117-80-188-80z" horiz-adv-x="1000" />

<glyph glyph-name="search" unicode="&#xe031;" d="M433 750c-183 0-333-150-333-333 0-184 150-334 333-334 80 0 154 29 211 76l199-199a33 33 0 1 1 47 47l-199 199c47 57 76 131 76 211 0 183-150 333-334 333z m0-67c148 0 267-119 267-266 0-148-119-267-267-267-147 0-266 119-266 267 0 147 119 266 266 266z" horiz-adv-x="1000" />

<glyph glyph-name="software" unicode="&#xe704;" d="M356 590c-76-32-144-64-150-70-17-17 9-32 155-90 103-42 136-51 162-45 49 10 270 108 274 122 3 6-9 18-24 27-27 13-245 104-268 111-5 1-72-23-149-55z m-118-211c-21-11-38-24-38-29 0-12 49-37 183-89 83-34 114-42 140-36 49 10 270 108 274 122 3 7-15 22-38 34l-42 21-96-38c-53-21-109-37-126-37-16 1-68 17-115 37-46 20-89 36-95 36-5-1-27-10-47-21z m0-160c-63-33-62-34 134-114l130-53 128 53c196 81 196 81 128 116l-41 21-96-38c-53-21-109-37-126-37-16 1-68 17-115 37-46 20-89 36-95 36-5-1-27-10-47-21z" horiz-adv-x="1000" />

<glyph glyph-name="turorial" unicode="&#xe764;" d="M247 743c-4-3-7-20-7-36 0-28 2-29 31-23 39 7 92-15 114-48 12-17 16-40 13-71-3-41-1-44 17-39 11 4 43 31 70 60 32 34 59 54 73 54 28 0 72-42 72-68 0-10-23-51-51-90-40-55-62-75-95-89-73-30-57-43 51-43l95 0 0 30 0 30 74 0c78 0 92-8 74-42-8-16-3-18 42-18l50 0-2 198-3 197-306 3c-168 1-308-1-312-5z m-12-118c-29-28-32-61-9-93 46-66 143-36 144 44 0 67-86 99-135 49z m285-47c-16-18-37-43-47-55-21-27-93-43-189-43-94 0-104-13-104-135l0-95 33 0c18 0 42-7 53-15 24-18 54-18 78 0 11 8 28 15 38 15 16 0 18 9 18 70l0 70 53 24c39 17 63 37 95 79 54 71 57 81 37 101-23 23-33 20-65-16z m-80-278l0-30 228 2 227 3 3 28 3 27-230 0-231 0 0-30z m-278-103c-26-27-28-54-7-84 14-20 13-24-15-51-24-24-30-39-30-71l0-41 390 0 390 0 0 41c0 32-6 47-30 71-28 27-29 31-15 51 20 29 19 49-6 81-55 70-158-16-105-89 12-16 10-21-15-42l-28-24-25 26c-24 24-25 28-11 48 20 29 19 49-6 81-52 66-152-1-114-77 14-28 14-31-10-55l-25-25-25 25c-24 24-24 27-10 55 38 76-62 143-114 77-25-32-26-52-6-81 14-20 13-24-11-48l-25-26-28 24c-25 21-27 26-15 42 52 71-44 156-104 92z" horiz-adv-x="1000" />

<glyph glyph-name="games" unicode="&#xe765;" d="M711 735c-98-28-171-74-263-167-68-68-94-88-115-88-83 0-152-48-198-140-14-27-25-52-25-55 0-3 36-5 80-5l80 0-6-41c-6-38-4-43 37-85 41-42 47-45 89-42l45 3-3-83-3-83 49 25c100 51 151 118 152 198 0 32 10 46 93 130 99 100 135 159 163 270 15 58 15 150 0 165-13 14-123 12-175-2z m-18-157c32-16 46-39 47-71 0-36-49-87-84-87-34 0-75 38-82 77-5 27-1 37 24 63 32 32 60 37 95 18z m-510-438c-34-20-38-30-52-117-8-50-7-52 13-48 12 2 42 7 68 10 36 5 53 13 73 37 26 31 27 51 1 29-18-15-56-22-78-15-27 8-31 40-8 83 11 23 19 41 18 41-2 0-18-9-35-20z" horiz-adv-x="1000" />

<glyph glyph-name="mag" unicode="&#xe800;" d="M236 675l-26-24 0-301 0-301 26-24 27-25 237 0 237 0 27 25 26 24 0 301 0 301-26 24-27 25-237 0-237 0-27-25z m499-325l0-285-235 0-235 0-3 275c-1 151 0 280 3 288 3 10 55 12 237 10l233-3 0-285z m-425 215l0-25 110 0 110 0 0 25 0 25-110 0-110 0 0-25z m7-111c-4-4-7-83-7-176l0-168 190 0 190 0-2 173-3 172-181 3c-99 1-183-1-187-4z" horiz-adv-x="1000" />

<glyph glyph-name="profile" unicode="&#xe801;" d="M432 719c-48-14-109-80-123-131-23-89 12-182 88-229 57-36 154-34 210 3 62 41 88 90 88 168 0 77-26 127-85 166-43 29-125 39-178 23z m-107-490c-117-46-184-124-185-216l0-43 360 0 360 0 0 43c-1 91-63 166-178 213-50 20-73 23-182 23-100 0-135-4-175-20z" horiz-adv-x="1000" />

<glyph glyph-name="help-circled" unicode="&#xe802;" d="M454 810q190 2 326-130t140-322q2-190-131-327t-323-141q-190-2-327 131t-139 323q-4 190 130 327t324 139z m-2-740q30 0 49 19t19 47q2 30-17 49t-49 19l-2 0q-28 0-47-18t-21-46q0-30 19-49t47-21l2 0z m166 328q26 34 26 78 0 78-54 116-52 38-134 38-64 0-104-26-68-42-72-146l0-4 110 0 0 4q0 26 16 54 16 24 54 24 40 0 52-20 16-20 16-44 0-18-16-40-8-12-20-20l-6-4q-6-4-16-11t-20-15-21-17-17-17q-14-20-18-78l0-8 108 0 0 4q0 12 4 28 6 20 28 36l28 18q46 34 56 50z" horiz-adv-x="920" />

<glyph glyph-name="down-open-big" unicode="&#xe803;" d="M63 570l370-356 372 356q22 26 48 0 26-22 0-48l-396-392q-22-22-48 0l-396 392q-26 26 0 48 24 24 50 0z" horiz-adv-x="866" />

<glyph glyph-name="left-open-big" unicode="&#xe804;" d="M452-20q26-26 0-48-26-26-48 0l-392 394q-24 24 0 50l392 394q22 26 48 0 26-22 0-48l-358-372z" horiz-adv-x="465" />

<glyph glyph-name="star-1" unicode="&#xe805;" d="M0 471l379-2 125 360 117-364 379-8-309-220 110-366-307 225-310-215 119 360z" horiz-adv-x="1000" />

<glyph glyph-name="plus-circle" unicode="&#xe806;" d="M465 797q184 0 315-131t131-316-131-315-315-132-316 132-131 315 131 316 316 131z m223-502l0 112-167 0 0 167-112 0 0-167-168 0 0-112 168 0 0-168 112 0 0 168 167 0z" horiz-adv-x="928" />

<glyph glyph-name="star-empty-1" unicode="&#xe807;" d="M0 471l94 0 285-2 96 270 29 90 29-92 88-272 285-6 94-2-76-54-233-166 82-274 28-92-76 57-231 168-232-162-78-53 29 90 90 270-227 174z m189-64l168-129 20-14-8-21-66-203 176 123 17 11 18-13 172-125-61 203-6 21 18 14 174 125-215 4-22 2-8 21-64 201-70-199-8-21-235 0z" horiz-adv-x="1000" />

<glyph glyph-name="phone" unicode="&#xe808;" d="M786 158q0-15-6-39t-12-38q-11-28-68-60-52-28-103-28-15 0-30 2t-32 7-26 8-31 11-28 10q-54 20-97 47-71 44-148 120t-120 148q-27 43-46 97-2 5-10 28t-12 31-8 26-7 32-2 29q0 52 29 104 31 57 59 68 14 6 38 12t39 6q8 0 12-2 10-3 30-42 6-11 16-31t20-35 17-30q2-2 10-14t12-20 4-16q0-11-16-27t-35-31-34-30-16-25q0-5 3-13t4-11 8-14 7-10q42-77 97-132t131-97q1 0 10-6t14-8 11-5 13-2q10 0 25 16t30 34 31 35 28 16q7 0 15-4t20-12 14-10q14-8 30-17t36-20 30-17q39-19 42-29 2-4 2-12z" horiz-adv-x="785.7" />

<glyph glyph-name="cancel" unicode="&#xe809;" d="M0 90q0 36 26 62l195 195-195 196q-26 25-26 61t26 61 61 25 61-25l196-196 195 196q25 25 61 25t61-25 25-61-25-61l-195-196 195-195q25-26 25-62t-25-61q-25-25-61-25t-61 25l-195 195-196-195q-25-25-61-25t-61 25q-26 26-26 61z" horiz-adv-x="686.5" />

<glyph glyph-name="licensing" unicode="&#xe80a;" d="M883 600v167c0 9-7 16-16 16h-67v-33h50v-150z m0 0m-766-250v-417c0-9 7-16 16-16h667c9 0 17 7 17 16v117h-34v-100h-633v400z m0 0m540 498c-1 1-1 1-2 1-1 0-2 1-4 1 0 0-1 0-1 0h-517c-9 0-16-7-16-17v-33h33v17h483v-134c0-9 8-16 17-16h133v-84h34v100c0 1 0 1 0 1-1 2-1 3-1 5-1 0-1 1-1 1-1 2-2 4-3 5l-150 150c-2 1-3 3-5 3z m103-148h-93v93z m0 0m-377-550v-133c0-10 8-17 17-17h217v33h-200v100h83v34h-100c-9 0-17-8-17-17z m0 0m67-50h100v-33h-100z m0 0m433 467c-64 0-116-53-116-117v-2l-85-89-53 53c-7 6-18 6-24 0l-150-150c-7-7-7-17 0-24l233-233c7-7 17-7 24 0l50 50 88 88v-260h-650v-33h667c9 0 16 7 16 17v400h-33v-77l-58 58 90 85h1c65 0 117 53 117 117 0 64-52 117-117 117z m-183-527l-210 210 27 26 210-209z m127 127l-77-77-210 210 77 76 42-42-38-39c-6-7-6-17 1-23l83-84c6-6 17-6 23 0l40 37z m56 200h-8c-4 0-8-2-11-5l-147-139-60 61 139 146c2 3 4 7 4 12v8c0 46 37 83 83 83s84-37 84-83c0-46-38-83-84-83z m0 0m-566 0h166v-34h-166z m0 0m-100-67h200v-33h-200z m0 0m150 133h200v-33h-200z m0 0m-150-200h100v-33h-100z m0 0m0-66h133v-34h-133z m0 0m0-67h133v-33h-133z m0 0m0-67h133v-33h-133z m0 0m0 334h66v-34h-66z m0 0m133-134h67v-33h-67z m0 0m67 284h166v-34h-166z m0 0m-217-134c108 0 196 86 200 193 9-7 20-11 32-10 9-10 21-16 35-16s26 6 34 16c14-1 27 4 36 13 10 10 15 23 14 36 10 9 16 22 16 35 0 13-6 26-16 35 1 13-4 26-14 36-9 9-22 14-36 13-8 10-21 16-34 16s-26-6-35-16c-13 1-26-4-36-13-9-10-14-23-13-36-2-2-5-5-7-7-46 86-148 126-240 95-93-32-149-126-133-222 16-97 99-168 197-168z m208 278c4 2 8 5 10 9 1 5 1 10-1 14-2 4-1 10 3 13 3 4 8 5 13 2 4-2 9-2 13 0 5 2 8 5 10 10 1 5 6 8 11 8s9-3 11-8c1-5 5-8 9-10 4-2 9-2 14 0 4 3 9 2 13-2 3-3 4-9 2-13-2-4-2-9 0-14 2-4 5-7 10-9 4-2 7-6 7-11s-3-9-7-11c-5-2-8-5-10-9-2-5-2-10 0-14 2-4 2-10-2-13-4-4-9-5-13-2-5 2-10 2-14 0-4-2-8-5-9-10-2-5-6-8-11-8-5 0-10 3-11 8-2 5-5 8-10 10-2 1-4 1-6 1-2 0-5 0-7-2-5-2-10-1-13 3-4 3-5 9-3 13 2 4 2 9 1 14-2 4-6 7-10 9-5 2-8 6-8 11 0 5 3 9 8 11z m-208 89c92 0 167-75 167-167 0-92-75-166-167-166s-167 74-167 166c1 92 75 167 167 167z m0 0m-78-262c6-6 17-6 23 0l167 167-24 23-155-154-38 38-23-24z m0 0" horiz-adv-x="1000" />

<glyph glyph-name="right-open-big" unicode="&#xe80b;" d="M13-20l358 370-358 372q-26 26 0 48 26 26 48 0l392-394q24-26 0-50l-392-394q-22-26-48 0-26 22 0 48z" horiz-adv-x="465" />

<glyph glyph-name="up-open-big" unicode="&#xe80c;" d="M804 130l-372 358-370-358q-26-22-50 0-24 24 0 50l396 390q26 26 48 0l396-390q24-26 0-50-26-22-48 0z" horiz-adv-x="864" />

<glyph glyph-name="sms-phone" unicode="&#xe811;" d="M688 663v125c0 34-28 62-63 62h-500c-34 0-62-28-62-62v-876c0-34 28-62 62-62h500c35 0 63 28 63 62v188h-63v-62h-500v687h500v-62h63z m187-63h-375c-34 0-62-28-62-62v-250c0-36 27-63 62-63h63v-62c0-12 6-23 17-28 4-3 9-4 14-4 6 0 13 2 19 7l116 87h146c35 0 63 27 63 63v250c0 35-28 62-63 62z m-280-219c-17 0-32 14-32 32 0 17 14 31 31 31h1c17 0 31-14 31-31 0-18-14-32-31-32z m188 0c-18 0-32 14-32 32 0 17 14 31 31 31h1c17 0 31-14 31-31 0-18-14-32-31-32z" horiz-adv-x="1000" />

<glyph glyph-name="schedule" unicode="&#xe812;" d="M195 762h107v32c0 13 5 26 14 34 9 9 21 15 35 15 13 0 25-6 34-15 9-8 14-21 14-34v-32h107v32c0 13 5 26 14 34 9 9 21 15 34 15 14 0 26-6 35-15 8-8 14-21 14-34v-32h106v32c0 13 6 25 15 34 8 9 21 14 34 14 13 0 25-5 34-14 9-9 14-21 14-34v-32h17c22 0 43-9 58-24 15-15 24-35 24-58v-153c0-8-7-14-15-14s-15 6-15 14v43h-389c-9 0-15 6-15 14 0 8 6 15 15 15h389v81c0 15-6 28-15 37-10 10-23 16-37 16h-17v-31c0-14-5-26-14-35-9-8-21-14-34-14-13 0-26 6-34 14-9 9-15 21-15 35v31h-106v-31c0-13-6-25-14-34-9-9-21-14-35-14-13 0-25 5-34 14-9 9-14 21-14 34v31h-107v-31c0-13-5-25-14-34-9-9-21-14-34-14-14 0-26 5-35 14-9 9-14 21-14 34v31h-107v-31c0-13-5-25-14-34-9-9-21-14-34-14-14 0-26 5-34 14-9 9-15 21-15 34v31h-16c-14 0-28-6-37-16-10-9-16-22-16-37v-81h390c8 0 15-7 15-15 0-8-7-14-15-14h-390v-433c0-8-6-14-14-14-8 0-15 6-15 14v543c0 23 9 43 24 58 15 15 36 24 58 24h16v32c0 13 6 26 15 34 8 9 20 15 34 15 13 0 25-6 34-15 9-8 14-21 14-34z m584-569c0 8 7 15 15 15 8 0 14-7 14-15v-129c0-4-1-8-4-10l-89-106c-6-6-15-7-21-1-6 5-7 14-2 20l87 102z m-89 14c-7-5-16-3-21 4-4 6-3 15 4 20 17 13 36 22 57 29 20 7 42 10 64 10 29 0 56-6 81-17v208c0 8 7 15 15 15s15-7 15-15v-223c12-8 24-18 35-28 37-38 60-89 60-146s-23-109-60-146c-38-37-89-61-146-61-57 0-109 24-146 61-14 14-26 30-36 48h-536c-21 0-40 9-54 22-13 14-22 33-22 54v29c0 8 7 14 15 14s14-6 14-14v-29c0-12 6-24 14-33 9-8 20-14 33-14h523c-8 22-12 45-12 69 0 21 4 41 9 61 7 19 16 38 27 55 5 7 14 8 20 4 7-5 9-14 4-21-10-14-17-30-23-47-5-16-7-34-7-52 0-49 20-93 52-125 32-32 76-52 125-52 49 0 93 20 125 52 32 32 52 76 52 125 0 49-20 93-52 125-32 32-76 52-125 52-19 0-38-3-55-9-18-5-34-14-49-25z m-64 301h173c8 0 14-7 14-15v-173c0-8-6-15-14-15h-173c-8 0-15 7-15 15v173c0 8 7 15 15 15z m158-30h-144v-143h144z m-418-218h173c8 0 15-7 15-15v-173c0-8-7-14-15-14h-173c-8 0-15 6-15 14v173c0 8 7 15 15 15z m158-29h-143v-144h143z m-158 277h173c8 0 15-7 15-15v-173c0-8-7-15-15-15h-173c-8 0-15 7-15 15v173c0 8 7 15 15 15z m158-30h-143v-143h143z m-418-218h173c8 0 15-7 15-15v-173c0-8-7-14-15-14h-173c-8 0-14 6-14 14v173c0 8 6 15 14 15z m158-29h-143v-144h143z m-158 277h173c8 0 15-7 15-15v-173c0-8-7-15-15-15h-173c-8 0-14 7-14 15v173c0 8 6 15 14 15z m158-30h-143v-143h143z m494 335c-5 0-10-2-14-6-3-3-5-8-5-13v-46-46c0-6 2-10 5-14s9-6 14-6c5 0 10 3 14 6 3 4 5 8 5 14v46 46c0 5-2 10-5 13-4 4-9 6-14 6z m-598-5c-3 3-8 5-13 5-5 0-10-2-14-5s-5-9-5-14v-46-46c0-5 2-10 5-14 4-3 9-5 14-5 5 0 10 2 13 5s6 9 6 14v46 46c0 5-2 10-6 14z m191 5c-6 0-11-2-14-5s-6-9-6-14v-46-46c0-5 3-10 6-14 3-3 8-5 14-5 5 0 10 2 13 5s6 9 6 14v46 46c0 5-2 10-6 14-3 3-8 5-13 5z m203 0c-5 0-10-2-13-5-4-4-6-9-6-14v-46-46c0-5 2-10 6-14 3-3 8-5 13-5 6 0 10 2 14 5s5 9 5 14v46 46c0 5-2 10-5 14-4 3-8 5-14 5z" horiz-adv-x="1000" />

<glyph glyph-name="cloud-computing" unicode="&#xe813;" d="M883 492c0 1 0 2 0 4 0 156-126 283-283 283-95 0-184-47-236-127-105 35-219-22-254-126-7-21-10-42-10-64 0-1 0-2 0-4-71-18-114-91-96-163 16-58 69-99 129-99h299c9 0 17 7 17 16s-8 17-17 17h-299c-55 0-100 45-99 101 0 49 37 91 86 98 8 1 15 9 14 18 0 5-1 11-1 16 0 93 75 167 167 167 22 0 44-4 64-13 8-3 17 0 21 7 70 119 223 158 342 88 76-45 123-127 123-215 0-6 0-11-1-17 0-8 6-16 15-18 64-7 109-66 102-130-8-58-57-102-116-102-5 0-10 0-15 1-2 0-5 0-7-1h-262c-9 0-17-7-17-17s8-16 17-16h267c2 0 3 0 4 0 4 0 9 0 13 0 83 0 150 67 150 150 0 70-48 130-117 146z m-253-401l-113-113v468c0 9-8 16-17 16s-17-7-17-16v-468l-113 113c-6 6-17 6-23-1-6-6-6-16 0-23l141-141c7-7 17-7 24 0l141 141c7 7 6 17 0 24-7 6-17 6-23 0z" horiz-adv-x="1000" />

<glyph glyph-name="bug" unicode="&#xe814;" d="M971 340h-173v60c87 14 154 90 154 181v38c0 16-13 29-29 29s-29-13-29-29v-38c0-59-41-109-96-122v26c0 26-21 48-48 48h-29v106c0 60-43 111-101 122l22 48c6 15 0 32-15 39-14 6-31-1-38-15l-31-69h-116l-31 69c-6 14-23 21-38 15-15-7-21-24-15-39l22-48c-58-11-101-62-101-122v-106h-29c-26 0-48-22-48-48v-26c-55 13-96 63-96 122v38c0 16-13 29-29 29s-29-13-29-29v-38c0-91 67-167 154-181v-60h-173c-16 0-29-12-29-28s13-29 29-29h173v-60c-87-14-154-90-154-181v-38c0-16 13-29 29-29s29 13 29 29v38c0 59 41 109 96 122v-16c0-164 134-298 298-298s298 134 298 298v16c55-13 96-63 96-122v-38c0-16 13-29 29-29s29 13 29 29v38c0 91-67 167-154 181v60h173c16 0 29 13 29 29s-13 28-29 28z m-634 299c0 37 30 67 67 67h192c37 0 68-30 68-67v-106h-327v106z m403-491c0-132-107-240-240-240s-240 108-240 240v327h211v-279c0-16 13-29 29-29s29 13 29 29v279h211v-327z" horiz-adv-x="1000" />

<glyph glyph-name="gift-box" unicode="&#xe815;" d="M689 281h-516l447 284a12 12 0 0 1 3 16l-44 69a71 71 0 0 1-97 22l-63-40 5 24a67 67 0 1 1-131 29l-33-146-109 24a67 67 0 0 1-41-127l-67-43a71 71 0 0 1-22-98l44-69a12 12 0 0 1 16-4l41 26v-296a71 71 0 0 1 71-71h437a71 71 0 0 1 71 71v317a12 12 0 0 1-12 12z m-195 371a47 47 0 0 0 25 8 48 48 0 0 0 11-1 47 47 0 0 0 29-21l38-60-184-117-63 99z m-178 28a44 44 0 1 0 85-19l-10-46-105-67z m14-132l63-100-107-68-63 100z m-230-74a44 44 0 0 0 46 66l95-21-106-66-8 2a43 43 0 0 0-27 19z m-21-226l-38 60a47 47 0 0 0 14 65l148 94 63-99z m227-344h-113a47 47 0 0 0-47 48v305h160z m149 0h-126v353h126z m222 48a47 47 0 0 0-47-48h-152v353h199z m143 435l6 33a12 12 0 0 1-17 12l-30-15-29 15a12 12 0 0 1-17-12l6-33-24-23a12 12 0 0 1 6-20l33-5 15-29a12 12 0 0 1 21 0l14 29 33 5a12 12 0 0 1 7 20z m-25-25a12 12 0 0 1-9-7l-7-14-7 14a12 12 0 0 1-8 7l-16 2 11 11a12 12 0 0 1 4 10l-3 15 14-7a12 12 0 0 1 11 0l14 7-3-15a12 12 0 0 1 3-10l11-11z m160 187l-32 8-12 30a12 12 0 0 1-21 2l-18-28-33-1a12 12 0 0 1-8-20l21-25-8-32a12 12 0 0 1 16-14l30 13 28-18a12 12 0 0 1 18 10l-2 33 25 21a12 12 0 0 1-4 21z m-41-27a12 12 0 0 1-4-10l1-16-13 9a12 12 0 0 1-11 1l-14-6 4 15a12 12 0 0 1-3 10l-10 12 16 1a12 12 0 0 1 9 6l8 13 6-15a12 12 0 0 1 8-7l15-3z m-132 217l-8-32a12 12 0 0 1 16-14l30 13 28-18a12 12 0 0 1 18 10l-2 34 25 20a12 12 0 0 1-4 21l-32 8-12 31a12 12 0 0 1-21 2l-18-29-33-1a12 12 0 0 1-8-20z m28 23a12 12 0 0 1 9 6l8 13 6-14a12 12 0 0 1 8-8l15-3-12-10a12 12 0 0 1-4-10l1-16-13 9a12 12 0 0 1-11 1l-14-6 4 15a12 12 0 0 1-3 11l-10 12z m-240-376c-27-17-40-37-40-38a12 12 0 0 1 20-13c1 3 44 67 136 44a12 12 0 0 1 6 23c-57 14-98-1-122-16z m222 124a12 12 0 0 1 9 21c-83 35-144 9-180-19a220 220 0 0 1-58-69 12 12 0 1 1 21-10 198 198 0 0 0 51 61c46 35 99 40 157 16z m-131 86a12 12 0 0 1 7-14 176 176 0 0 1 50-7c19 0 42 3 62 15 27 16 44 43 51 80a12 12 0 1 1-23 4c-6-30-19-52-40-64-38-23-92-6-93-6a12 12 0 0 1-14-8z m-155-302a21 21 0 1 1-21 21 21 21 0 0 1 21-21z m0 23a2 2 0 1 0-3-2 2 2 0 0 0 3 2z m166 359a21 21 0 1 1-21 22 21 21 0 0 1 21-22z m0 24a2 2 0 1 0-3-2 2 2 0 0 0 3 2z m297-7a21 21 0 1 1 21-22 21 21 0 0 1-21 22z m0-24a2 2 0 1 0 3 2 2 2 0 0 0-3-2z m-472-257a21 21 0 1 1-21-21 21 21 0 0 1 21 21z m-21-2a2 2 0 1 0 2 2 2 2 0 0 0-2-2z m458-11a21 21 0 1 1 22-21 21 21 0 0 1-22 21z m0-23a2 2 0 1 0 3 2 2 2 0 0 0-3-2z" horiz-adv-x="1000" />

<glyph glyph-name="swift" unicode="&#xe816;" d="M913 172c0 0 143 322-297 616 0 0 180-223 88-471 0 0-323 225-486 386 0 0 203-287 276-345 0 0-121 61-402 296 0 0 322-413 474-499 0 0-230-154-566 63 0 0 177-306 550-306 168 0 217 85 300 85 86 0 138-85 138-85 50 122-75 260-75 260z" horiz-adv-x="1000" />

<glyph glyph-name="payment-method" unicode="&#xe817;" d="M933-4l-35 36c9 31 1 65-22 89-132 132-133 132-133 132-22 20-55 20-76 0-7-7-11-15-14-23-4 1-8 1-12 1-7 0-13-1-19-3v570c0 28-23 52-52 52h-457c-29 0-52-24-52-52v-843c0-29 23-52 52-52h405c3-14 10-26 20-36 9-9 22-15 35-15h0c13 0 26 6 35 15l24 24c8 7 11 7 22 8 3 0 7 0 11 0l52-7c12-1 25-1 37 2l39-38c4-4 9-6 14-6 5 0 10 2 14 6l112 112c8 8 8 20 0 28z m-833 802c0 7 6 13 13 13h457c7 0 13-6 13-13v-94h-483v94z m0-133h483v-485c-12-1-23-7-32-16-4-4-7-8-10-13-15 15-27 27-36 36v55c0 11-9 20-20 20h-287c-11 0-19-9-19-20v-122c0-10 8-19 19-19h237l26-27h-361v591z m286-515c0 0 0-1 1-1 0 0 0 0 0 0l9-9h-178v83h166c-17-21-17-52 2-73z m152-175c-10-10-16-21-20-33h-405c-7 0-13 6-13 13v80h401l49-49-12-11z m217-39c-10-5-22-7-33-5l-54 7c-2 0-11 0-14 0-15 0-31-1-50-19l-23-24c-2-2-5-3-8-3h0c-3 0-6 1-8 3-7 7-10 16-10 26 0 0 0 0 0 1 0 0 0 0 0 0 0 9 4 18 10 25l26 26c8 8 9 19 0 27l-176 176c0 0 0 0 0 0-6 7-6 17 1 23 6 6 15 6 22 0 5-5 134-134 134-134 3-3 8-5 13-5 5 0 10 2 14 5 8 8 8 20 0 28l-20 20c0 1-1 1-1 2-6 6-5 16 1 22 6 6 15 6 21 1l22-22c4-4 9-6 14-6s10 2 14 6c7 8 7 20 0 28 0 0-21 21-21 21-6 7-6 16 0 22 3 4 8 5 12 5 4 0 7-1 10-3l22-22c4-4 9-6 14-6 5 0 10 2 14 6 7 7 7 20 0 27 0 0-8 8-8 8-6 7-5 17 1 23 6 5 16 5 22 0 7-6 89-88 132-132 15-15 19-38 9-57l-99-99c-1 0-2 0-3-1z m52-39l-17 17 85 85 17-17-85-85z m-422 111h-87c-10 0-19-9-19-20 0-10 9-19 19-19h87c11 0 19 9 19 19 0 11-8 20-19 20z m125 754c0 1-1 2-1 3-1 1-1 2-2 4-1 1-1 2-2 2-1 1-2 2-3 3-1 1-2 1-4 2-1 0-2 1-3 1-7 1-13-1-18-6-1 0-2-1-2-2-1-2-2-3-2-4-1-1-1-2-1-3-1-2-1-3-1-4 0-2 0-3 1-4 0-1 0-3 1-4 0-1 1-2 2-3 0-1 1-2 2-3 1-1 2-2 3-3 1 0 2-1 3-1 2-1 3-1 4-1 1-1 3-1 4-1 1 0 2 0 4 1 1 0 2 0 3 1 2 0 3 1 4 1 1 1 2 2 3 3 3 4 5 9 5 14 0 1 0 2 0 4z m-92 15h-226c-10 0-19-9-19-19s9-20 19-20h226c11 0 20 9 20 20 0 10-9 19-20 19z m45-193c-31 31-74 49-118 50-47 1-92-17-125-50-34-34-52-78-51-125 1-45 19-87 51-119 32-32 74-50 118-51 1 0 3 0 4 0 46 0 89 18 122 51 33 33 51 78 50 125-1 45-19 87-51 119z m-27-216c-26-26-60-40-97-40-71 2-129 60-131 131 0 37 13 71 39 97 26 25 59 39 95 39 0 0 1 0 2 0 71-1 130-60 131-131 1-36-13-71-39-96z m-84 112v32c14-1 18-8 25-8 9 0 13 12 13 18 0 16-25 19-38 20v5c0 4-4 6-8 6-5 0-9-2-9-6v-6c-22-3-42-17-42-45 0-29 23-38 42-46v-36c-15 2-23 16-32 16-8 0-14-12-14-19 0-14 21-28 46-29v-6c0-3 4-6 9-6 4 0 8 3 8 6v7c25 4 42 21 42 48 0 31-23 41-42 49z m-14 5c-9 4-14 8-14 14 0 5 4 11 14 13v-27z m12-71v30c7-4 13-9 13-16 0-8-6-12-13-14z" horiz-adv-x="1000" />

<glyph glyph-name="package" unicode="&#xe818;" d="M3 58l-1 454c0 23 22 38 43 29l414-177c11-5 19-16 19-28l1-455c0-22-23-37-44-29l-413 177c-12 5-19 17-19 29z m948 433l-382-165 1-421 382 165-1 421m15 55c17 0 31-13 31-31l1-455c0-12-7-23-18-28l-413-179c-4-2-8-3-13-3-16 0-31 13-31 31l-1 455c0 12 8 24 19 28l413 179c4 2 8 3 12 3l0 0z m-469 256l-396-177 397-175 396 177-397 175m0 48c4 0 9-1 13-3l435-191c25-11 25-46 0-57l-434-194c-4-2-9-3-13-3-4 0-9 1-13 3l-435 191c-25 11-25 46 0 57l434 194c4 2 9 3 13 3l0 0z" horiz-adv-x="1000" />

<glyph glyph-name="hard-disc" unicode="&#xe819;" d="M925 179c24 0 45-7 64-20l-126 598c-7 35-42 63-78 63h-570c-36 0-71-28-78-63l-126-598c19 13 40 20 64 20h850l0 0z m-850-299h850c41 0 75 34 75 75v110c0 15-4 29-12 40-13 21-36 35-63 35h-850c-27 0-50-14-63-35-8-11-12-25-12-40v-110c0-41 34-75 75-75z m796 140h-164c-10 0-19 9-19 20 0 11 9 19 19 19h164c10 0 19-8 19-19 0-11-9-20-19-20z" horiz-adv-x="1000" />

<glyph glyph-name="dislike" unicode="&#xe81a;" d="M229 829h-125c-57 0-104-47-104-104v-333c0-58 47-104 104-104h188v520c-18 13-39 21-63 21z m771-385c0 36-21 68-51 83 6 13 9 27 9 42 0 36-20 68-51 83 9 19 12 41 7 63-9 42-49 73-94 73h-382c-28 0-71-9-105-25v-447l5-2 120-260v-142c0-6 3-12 8-16 2-1 32-25 76-25 48 0 125 76 125 167 0 57-21 128-33 166h257c56 0 104 42 109 95 2 29-8 58-27 79 17 17 27 41 27 66z" horiz-adv-x="1000" />

<glyph glyph-name="like" unicode="&#xe81b;" d="M104 413c-57 0-104-47-104-105v-333c0-57 47-104 104-104h125c24 0 45 8 63 21v521h-188z m896-157c0 25-10 49-27 66 19 21 29 50 27 79-5 53-53 95-109 95h-257c12 39 33 110 33 167 0 90-77 166-125 166-44 0-74-24-76-25-5-4-8-10-8-16v-142l-120-260-5-2v-447c34-16 77-25 105-25h382c45 0 85 31 94 73 5 22 2 44-7 63 31 15 51 47 51 83 0 15-3 29-9 42 30 15 51 47 51 83z" horiz-adv-x="1000" />

<glyph glyph-name="xcode" unicode="&#xe81c;" d="M769 783c-119 0-200-35-200-35a22 22 0 0 1 9-42c94 0 127-17 160-42 6-4 12-9 18-16l-715-110 112-736 360 58c4-29 24-55 54-65l27-8a22 22 0 0 1 0 0c20-6 40-6 58 2 18 8 32 23 40 43a22 22 0 0 1 0 2c0 0 15 48 17 57l339 54-101 634c2 0 4 1 6 1 5 0 8-2 7-1a22 22 0 0 1 0 0c3-2 3-2 3-2a22 22 0 0 1 16-22l46-15a22 22 0 0 1 27 14l36 110a22 22 0 0 1-15 28l-45 14a22 22 0 0 1-28-12c0-2-1-2 0-1 1 0 1 0-3 0-2 0-9 4-15 11-7 7-11 14-11 14a22 22 0 0 1-7 8c-44 27-114 57-195 57z m0-44c69 0 131-26 168-49 3-4 4-8 11-16 10-11 26-26 49-26 11 0 21 3 29 9 1 1 1 2 2 3l11-4-22-67-13 4c0 2 0 3 0 5-5 8-11 12-17 16-11 9-24 10-35 10l0 0c-27 0-49-17-65-40-16-22-29-51-42-83-24-66-45-149-66-222-42-143-129-429-129-431-4-11-9-16-16-19-6-3-15-3-27 0l-27 9a22 22 0 0 1 0 0c-19 6-29 27-22 46 0 0 123 293 164 391 47 113 91 227 100 306l0 0c7 59-32 100-57 119-17 12-38 23-62 31 22 3 38 8 66 8z m8-132c1-7 2-14 1-21l0 0c-8-67-50-182-97-294-41-97-159-379-162-386l-329-53-98 648 685 106z m132-72l88-553-274-44c26 87 66 219 98 328 22 75 43 157 66 219 7 19 15 36 22 50z m-400-38c-6 0-12-2-18-6l-19-16c-10-9-11-24-3-34l167-189 34 74-53 59-91 103c-4 5-10 8-17 9z m-81-79c-10 0-19-6-23-15l-13-32 69-28 13 33c5 12-1 26-13 31l-23 9c-4 2-7 2-10 2z m-46-70l-97-232 69-27 97 232-69 27z m489-5l-1 0-23-77 36 5-12 72z m-307-48l-103-16-33-78 193 29-57 65z m-247-38l-113-17 11-72 69 11 33 78z m513-48l-26-91c2-1 4-2 6-2 48-16 57-46 57-46 0 0 12 18 12 60 0 49-32 71-49 79z m-554-115l-1-4-11-117 77 90c1 1 2 2 3 4l-64 25-4 2z" horiz-adv-x="1000" />

<glyph glyph-name="upload" unicode="&#xe81d;" d="M751 515h-81c-16 0-29-13-29-29s13-28 29-28h81c40 0 73-33 73-73v-406c0-40-33-73-73-73h-502c-40 0-73 33-73 73v407c0 40 33 72 73 72h81c16 0 28 13 28 29s-12 28-28 28h-81c-72 0-130-58-130-129v-407c0-71 58-129 130-129h502c72 0 130 58 130 129v407c0 71-58 129-130 129z m-401 117l122 121v-457c0-15 12-28 28-28s28 13 28 28v457l122-121c5-6 13-9 20-9s14 3 20 9c11 11 11 29 0 40l-170 170c-11 11-29 11-40 0l-170-170c-11-11-11-29 0-40 11-11 29-11 40 0z" horiz-adv-x="1000" />

<glyph glyph-name="ok" unicode="&#xe827;" d="M933 534q0-22-16-38l-404-404-76-76q-16-15-38-15t-38 15l-76 76-202 202q-15 16-15 38t15 38l76 76q16 16 38 16t38-16l164-165 366 367q16 16 38 16t38-16l76-76q16-15 16-38z" horiz-adv-x="1000" />

<glyph glyph-name="cancel-5" unicode="&#xe82a;" d="M724 112q0-22-15-38l-76-76q-16-15-38-15t-38 15l-164 165-164-165q-16-15-38-15t-38 15l-76 76q-16 16-16 38t16 38l164 164-164 164q-16 16-16 38t16 38l76 76q16 16 38 16t38-16l164-164 164 164q16 16 38 16t38-16l76-76q15-15 15-38t-15-38l-164-164 164-164q15-15 15-38z" horiz-adv-x="785.7" />

<glyph glyph-name="down-open-1" unicode="&#xe936;" d="M564 422l-234-224q-18-18-40-18t-40 18l-234 224q-16 16-16 41t16 41q38 38 78 0l196-188 196 188q40 38 78 0 16-16 16-41t-16-41z" horiz-adv-x="580" />

<glyph glyph-name="left-open-1" unicode="&#xe937;" d="M242 626q14 16 39 16t41-16q38-36 0-80l-186-196 186-194q38-44 0-80-16-16-40-16t-40 16l-226 236q-16 16-16 38 0 24 16 40 206 214 226 236z" horiz-adv-x="341" />

<glyph glyph-name="right-open-1" unicode="&#xe938;" d="M98 626l226-236q16-16 16-40 0-22-16-38l-226-236q-16-16-40-16t-40 16q-36 36 0 80l186 194-186 196q-36 44 0 80 16 16 41 16t39-16z" horiz-adv-x="340" />

<glyph glyph-name="up-open-1" unicode="&#xe939;" d="M564 280q16-16 16-41t-16-41q-38-38-78 0l-196 188-196-188q-40-38-78 0-16 16-16 41t16 41l234 224q16 16 40 16t40-16z" horiz-adv-x="580" />

<glyph glyph-name="down-open-mini" unicode="&#xe93a;" d="M405 470q22 26 48 0 26-22 0-48l-196-192q-22-22-48 0l-196 192q-26 26 0 48 24 24 50 0l170-156z" horiz-adv-x="466" />

<glyph glyph-name="left-open-mini" unicode="&#xe93b;" d="M252 180q26-26 0-48-26-26-48 0l-192 194q-24 24 0 50l192 194q22 26 48 0 26-22 0-48l-156-172z" horiz-adv-x="265" />

<glyph glyph-name="right-open-mini" unicode="&#xe93c;" d="M13 180l158 170-158 172q-26 26 0 48 26 26 48 0l192-194q24-26 0-50l-192-194q-22-26-48 0-26 22 0 48z" horiz-adv-x="265" />

<glyph glyph-name="up-open-mini" unicode="&#xe93d;" d="M62 230q-26-22-50 0-24 24 0 50l196 190q26 26 48 0l196-190q24-26 0-50-24-22-50 0l-170 158z" horiz-adv-x="464" />

<glyph glyph-name="mobile" unicode="&#xf10b;" d="M259 64q0 19-13 32t-32 13-31-13-13-32 13-31 31-13 32 13 13 31z m116 90v392q0 8-5 13t-13 5h-286q-7 0-12-5t-5-13v-392q0-8 5-13t12-5h286q7 0 13 5t5 13z m-107 473q0 9-9 9h-89q-9 0-9-9t9-9h89q9 0 9 9z m161 9v-572q0-29-22-50t-50-21h-286q-29 0-50 21t-21 50v572q0 29 21 50t50 21h286q29 0 50-21t22-50z" horiz-adv-x="428.6" />

<glyph glyph-name="smartphone-tablet" unicode="&#x1f4de;" d="M175 713c-27 0-50-23-50-50l0-625c0-28 23-51 50-51l275 0 0 26-275 0c-14 0-25 11-25 25l0 625c0 14 11 25 25 25l450 0c14 0 25-11 25-25l0-50 25 0 0 50c0 27-22 50-50 50z m138-50c-7 0-13-6-13-13 0-7 6-12 13-12 6 0 12 5 12 12 0 7-6 13-12 13z m50 0c-5 0-9-3-11-7-3-4-3-8 0-12 2-4 6-6 11-6l75 0c4 0 8 2 11 6 2 4 2 8 0 12-3 4-7 7-11 7z m162-75c-27 0-50-23-50-50l0-525c0-28 23-51 50-51l300 0c28 0 50 23 50 51l0 525c0 27-22 50-50 50z m0-25l300 0c14 0 25-11 25-25l0-525c0-15-11-26-25-26l-300 0c-14 0-25 11-25 26l0 525c0 14 11 25 25 25z m75-25c-7 0-12-6-12-13 0-7 5-12 12-12 7 0 13 5 13 12 0 7-6 13-13 13z m50 0c-4 0-9-3-11-7-2-4-2-8 0-12 2-4 7-6 11-6l50 0c5 0 9 2 11 6 2 4 2 8 0 12-2 4-6 7-11 7z m-250-438c-14 0-25-11-25-25 0-14 11-25 25-25 14 0 25 11 25 25 0 14-11 25-25 25z m275-37c-14 0-25-12-25-25 0-14 11-25 25-25 14 0 25 11 25 25 0 13-11 25-25 25z" horiz-adv-x="1000" />
</font>
</defs>
</svg>
